<svg xmlns="http://www.w3.org/2000/svg" width="24" height="24" viewBox="0 0 24 24">
    <defs>
        <style>
            .cls-1{fill:#fff}
        </style>
    </defs>
    <g id="Search" transform="translate(-1134 -294)">
        <path id="패스_2" d="M3 10.5A7.427 7.427 0 0 1 10.5 3a7.427 7.427 0 0 1 7.5 7.5 7.427 7.427 0 0 1-7.5 7.5A7.427 7.427 0 0 1 3 10.5zm18.45 13.05a1.485 1.485 0 0 0 2.1-2.1L18.9 16.8a10.27 10.27 0 0 0 2.1-6.3A10.435 10.435 0 0 0 10.5 0 10.435 10.435 0 0 0 0 10.5 10.435 10.435 0 0 0 10.5 21a10.27 10.27 0 0 0 6.3-2.1z" class="cls-1" data-name="패스 2" transform="translate(1134 294)"/>
    </g>
</svg>
